<svg xmlns="http://www.w3.org/2000/svg" width="25" height="24" viewBox="0 0 25 24">
    <path fill="#000" fill-rule="nonzero" d="M9.266 18.8a2.67 2.67 0 1 1-2.044 4.932A2.67 2.67 0 0 1 9.266 18.8zm10.723 0a2.67 2.67 0 1 1-2.044 4.932A2.67 2.67 0 0 1 19.99 18.8zM8.245 20.396a.87.87 0 1 0-.002 1.735.87.87 0 0 0 .002-1.733v-.002zm10.723 0a.87.87 0 1 0-.001 1.735.87.87 0 0 0 0-1.733v-.002zM4.244 0a.9.9 0 0 1 .894.794l.272 2.294h17.82a.9.9 0 0 1 .888 1.05l-1.68 9.906a.9.9 0 0 1-.89.748L6.8 14.79l.168 1.417h14.431a.9.9 0 0 1 0 1.8H6.17a.9.9 0 0 1-.894-.793L4.28 8.833l-.001-.018-.559-4.71V4.08L3.449 1.8H.908a.9.9 0 0 1 0-1.8h3.336zm17.918 4.886H5.624l.442 3.723.002.012.025.212.494 4.159h14.2l1.375-8.106z"/>
</svg>
