<svg width="20" height="37" viewBox="0 0 20 37" fill="none" xmlns="http://www.w3.org/2000/svg">
<path id="Combined Shape Copy 5" fill-rule="evenodd" clip-rule="evenodd" d="M17.5675 0.366139C18.0388 -0.0182818 18.7341 0.00917935 19.1734 0.448521C19.6421 0.917152 19.6421 1.67695 19.1734 2.14558L2.89688 18.422L19.1734 34.6986L19.2558 34.7897C19.6402 35.261 19.6128 35.9563 19.1734 36.3956C18.7048 36.8642 17.945 36.8642 17.4764 36.3956L0.351292 19.2705C0.351286 19.2705 0.351282 19.2705 0.351276 19.2705C0.321999 19.2412 0.294548 19.2108 0.268929 19.1794L0.268917 19.1794C0.243288 19.148 0.21949 19.1156 0.197523 19.0823C-0.110014 18.6165 -0.058754 17.9835 0.351297 17.5735C0.351727 17.573 0.352152 17.5726 0.352581 17.5722L17.4764 0.448515L17.5675 0.366139Z" fill="white"/>
</svg>
