<svg width="22" height="22" fill="none" xmlns="http://www.w3.org/2000/svg"><g id="hamburger"><path id="Combined Shape" fill-rule="evenodd" clip-rule="evenodd" d="M21 0a1 1 0 01.117 1.993L21 2H1A1 1 0 01.883.007L1 0h20zm0 10a1 1 0 01.117 1.993L21 12H1a1 1 0 01-.117-1.993L1 10h20zm1 11a1 1 0 00-1-1H1l-.117.007A1 1 0 001 22h20l.117-.007A1 1 0 0022 21z" fill="#000"/></g></svg>77 22 11C22 11.5128 21.614 11.9355 21.1166 11.9933L21 12H1C0.447715 12 0 11.5523 0 11C0 10.4872 0.38604 10.0645 0.883379 10.0067L1 10H21ZM22 21C22 20.4477 21.5523 20 21 20H1L0.883379 20.0067C0.38604 20.0645 0 20.4872 0 21C0 21.5523 0.447715 22 1 22H21L21.1166 21.9933C21.614 21.9355 22 21.5128 22 21Z" fill="black"/>
</g>
</svg>
