<svg width="20" height="23" fill="none" xmlns="http://www.w3.org/2000/svg"><path fill-rule="evenodd" clip-rule="evenodd" d="M12.718 0c1.947 0 3.538 1.542 3.635 3.479l.005.189v3.768A4.362 4.362 0 0120 11.75v6.88c0 2.413-1.943 4.37-4.336 4.37H4.336C1.943 23 0 21.043 0 18.63v-6.88a4.362 4.362 0 013.642-4.314V3.668c0-1.962 1.53-3.565 3.453-3.663L7.282 0h5.436zm1.797 3.668V7.38h-9.03V3.668l.005-.135a1.804 1.804 0 011.792-1.676h5.436l.134.005c.929.07 1.663.852 1.663 1.806zM4.336 9.238h11.328a2.504 2.504 0 012.493 2.512v6.88a2.504 2.504 0 01-2.493 2.513H4.336a2.504 2.504 0 01-2.493-2.512V11.75a2.504 2.504 0 012.493-2.512zM10 12.381c-1.54 0-2.788 1.258-2.788 2.81C7.212 16.74 8.46 18 10 18c1.54 0 2.788-1.259 2.788-2.81 0-1.55-1.249-2.81-2.788-2.81zm0 1.857a.95.95 0 01.945.952.95.95 0 01-.945.953.95.95 0 01-.945-.953.95.95 0 01.945-.952z" fill="#000"/></svg>