<svg width="22" height="22" fill="none" xmlns="http://www.w3.org/2000/svg"><path fill-rule="evenodd" clip-rule="evenodd" d="M2.52 2.52c-3.36 3.36-3.36 8.816 0 12.177 3.125 3.125 8.062 3.344 11.44.658l6.357 6.356.093.082a.986.986 0 001.301-1.476l-6.356-6.357c2.686-3.379 2.467-8.315-.658-11.44-3.36-3.36-8.816-3.36-12.177 0zm10.816 1.361a6.69 6.69 0 010 9.455 6.69 6.69 0 01-9.455 0 6.69 6.69 0 010-9.455 6.69 6.69 0 019.455 0z" fill="#000"/></svg>1.3366 -0.840114 5.88088 -0.840114 2.52042 2.52034ZM13.3363 3.88104C15.9453 6.49009 15.9453 10.7273 13.3363 13.3364C10.7274 15.9453 6.49009 15.9453 3.88112 13.3364C1.27205 10.7273 1.27205 6.4901 3.88112 3.88104C6.49009 1.27208 10.7274 1.27208 13.3363 3.88104Z" fill="black"/>
</svg>
