<svg xmlns="http://www.w3.org/2000/svg" width="48" height="48" viewBox="0 0 48 48">
    <g fill="none" fill-rule="evenodd">
        <circle cx="24" cy="24" r="24" fill="#F14141"/>
        <path fill="#FFF" fill-rule="nonzero" d="M36.8 31.586c0 .317-.059.731-.176 1.242-.118.51-.24.913-.37 1.207-.247.587-.963 1.21-2.149 1.867-1.104.599-2.196.898-3.276.898-.317 0-.625-.02-.925-.062a7.613 7.613 0 0 1-1.013-.22c-.375-.105-.654-.19-.836-.255a69.362 69.362 0 0 1-.978-.361c-.47-.176-.757-.282-.863-.317a15.952 15.952 0 0 1-3.082-1.462c-1.503-.928-3.056-2.193-4.659-3.796-1.603-1.603-2.868-3.156-3.796-4.659a15.952 15.952 0 0 1-1.462-3.082c-.035-.106-.14-.394-.317-.863-.176-.47-.296-.796-.36-.978-.065-.182-.15-.46-.256-.836a7.613 7.613 0 0 1-.22-1.013A6.795 6.795 0 0 1 12 17.97c0-1.08.3-2.172.898-3.276.658-1.186 1.28-1.902 1.867-2.149.294-.13.696-.252 1.207-.37.51-.117.925-.176 1.242-.176.164 0 .287.018.37.053.21.07.522.517.933 1.338.13.224.305.54.528.952.224.41.43.783.617 1.118.188.335.37.649.546.942.035.047.138.194.308.44.17.247.297.456.379.626.082.17.123.338.123.502 0 .235-.167.528-.502.88a8.586 8.586 0 0 1-1.092.97c-.393.293-.757.604-1.092.933-.335.329-.502.599-.502.81 0 .106.03.238.088.397.059.158.109.278.15.36.041.083.123.224.246.423.124.2.191.311.203.335.892 1.609 1.914 2.988 3.065 4.14 1.15 1.15 2.53 2.172 4.139 3.064.024.012.135.08.335.203.2.123.34.205.422.246.083.041.203.091.361.15.159.059.291.088.397.088.211 0 .481-.167.81-.502.329-.335.64-.699.934-1.092.293-.394.616-.758.968-1.092.353-.335.646-.502.881-.502.164 0 .332.04.502.123.17.082.379.209.625.379.247.17.394.273.44.308.294.176.608.358.943.546.335.188.707.393 1.118.617.411.223.728.399.952.528.821.41 1.268.722 1.338.933a.986.986 0 0 1 .053.37z"/>
    </g>
</svg>
