<svg xmlns="http://www.w3.org/2000/svg" width="24" height="27" viewBox="0 0 24 27">
    <g fill="#F14141" fill-rule="nonzero">
        <path d="M24 9.058h-3.636V5.661L14.326 0H0v26.182h20.364v-3.834H24V9.058zm-2.182 11.108H6.545V11.24h15.273v8.926z"/>
        <path d="M9.086 16.125h1.148c.223 0 .429-.046.615-.137.187-.091.347-.212.479-.362s.235-.323.308-.517c.072-.193.109-.393.109-.598 0-.196-.039-.39-.116-.584a1.744 1.744 0 0 0-.322-.52 1.602 1.602 0 0 0-.488-.369 1.379 1.379 0 0 0-.62-.14H8.143v4.854h.944v-1.627zm0-2.4h1.052a.611.611 0 0 1 .452.205.81.81 0 0 1 .143.25.947.947 0 0 1 .055.331c0 .242-.058.433-.174.574a.54.54 0 0 1-.435.212H9.086v-1.572zM15.153 17.577a2.17 2.17 0 0 0 .755-.492c.21-.212.37-.467.482-.766.112-.298.168-.632.168-1.001 0-.333-.05-.646-.15-.94-.1-.294-.251-.55-.452-.77-.2-.218-.45-.391-.748-.519a2.636 2.636 0 0 0-1.043-.191h-1.764v4.854h1.764c.365 0 .694-.058.988-.175zm-1.808-3.852h.82c.228 0 .432.039.612.116.18.078.331.187.454.328.123.142.217.31.28.506.064.196.096.41.096.643 0 .228-.032.44-.095.636a1.507 1.507 0 0 1-.277.509c-.121.144-.271.256-.451.338-.18.082-.387.123-.62.123h-.82v-3.199zM18.24 15.742h1.927v-.766H18.24v-1.251h2.318v-.827h-3.261v4.854h.943z"/>
    </g>
</svg>
