<svg version="1.1" id="Capa_1" xmlns="http://www.w3.org/2000/svg" x="0" y="0" viewBox="0 0 495.654 495.654" xml:space="preserve"><path d="M388.376 323.098c74.293-48.257 83.975-104.876 84.023-130.237a6.324 6.324 0 00-3.439-5.621c-2.12-1.084-4.402-.441-6.578.502-27.769 12.042-74.928-49.043-165.898-73.077-42.74-11.292-73.007-76.291-73.007-76.291l-.018.007C212.073 16.792 192.516 0 163.261 0 112.249 0 51.172 51.019 51.172 89.629c0 1.553.177 3.074.305 4.603L25.23 119.11a6.305 6.305 0 00-1.528 6.913 6.319 6.319 0 005.862 3.972h38.635c.256.272.526.527.781.796-31.647 158.709 63.689 209.33 134.432 225.343l2.977 18.604-28.824 52.992c-.208.391-.208.822-.382 1.227l-26.453-8.337c-4.252-1.319-8.887 1.037-10.225 5.327a8.15 8.15 0 005.319 10.235l15.799 4.976-18.03 12.653c-3.693 2.589-4.589 7.669-1.991 11.357a8.148 8.148 0 006.673 3.469 8.089 8.089 0 004.686-1.481l29.431-20.664h36.807a8.148 8.148 0 008.153-8.154 8.151 8.151 0 00-8.153-8.154h-15.118l27.888-51.248 22.743-15.816c11.1.549 17.947.247 17.947.247l.018-.086c6.479-.097 12.738-.553 18.838-1.252l18.696 21.818-3.899 68.482h-31.675a8.148 8.148 0 00-8.154 8.154 8.146 8.146 0 008.154 8.154h27.31l-2.645 17.657a8.161 8.161 0 006.85 9.277c.415.054.814.085 1.226.085a8.138 8.138 0 008.043-6.944l3.282-21.882 31.611-9.349c4.315-1.273 6.784-5.811 5.511-10.127-1.275-4.323-5.829-6.823-10.127-5.51l-14.526 4.291 3.441-60.296 53.763-62.741z"/></svg>