<svg version="1.1" id="Capa_1" xmlns="http://www.w3.org/2000/svg" x="0" y="0" viewBox="0 0 496.394 496.394" xml:space="preserve"><path d="M399.686 108.48c-.954-3.094-3.28-5.456-6.22-6.278-10.102-2.854-18.566-10.162-23.222-20.083a54.988 54.988 0 00-2.601-4.866c-4.041-6.689-10.037-11.731-17.064-14.42-6.529-2.497-11.068-6.278-15.285-9.976-.453-8.863-2.294-33.415-9.322-50.212A4.302 4.302 0 00322.886.09a4.337 4.337 0 00-3.879 1.124c-6.836 6.672-19.793 22.122-25.838 46.649-26.691 12.207-34.69 38.237-34.69 56.239 0 5.59 1.16 10.882 2.828 15.963-13.332 6.22-26.082 19.46-38.084 40.669l-61.662 74.175.033.015c-23.381 21.372-39.021 59.623-39.021 103.404 0 9.139.81 17.466 2.083 25.28-.272.386-.69.615-.936 1.034-20.146 33.32-17.886 29.647-22.619 39.806-9.44 25.241-4.175 51.998 10.583 67.34 20.15 20.949 41.785 25.031 49.638 24.561 15.998.271 13.009.273 98.143-28.422 5.637-1.9 8.854-7.901 7.236-13.682-1.645-5.975-7.869-9.466-13.844-7.795-85.793 24.045-83.326 24.738-97.273 21.055-1.197-.411-45.578-20.399-15.755-64.13 14.3 21.183 36.196 31.894 61.14 32.768v.29h90.295c7.124 0 12.924-4.76 12.924-10.631 0-9.324-5.072-18.162-13.815-24.068-4.069-2.763-8.788-4.677-13.749-5.835 6.383-11.108 10.795-24.6 12.637-40.53l24.559 76.741a6.412 6.412 0 006.062 4.324h42.058c8.207 0 14.865-4.768 14.865-10.624 0-9.332-5.83-18.155-15.898-24.076-5.93-3.498-13.007-5.591-20.426-6.489l-10.645-39.49-5.172-87.634c20.359-21.441 33.024-45.532 24.545-90.848-3.945-20.971 10.631-30.634 13.346-32.243 2.456-.848 4.91-1.787 7.367-2.529 3.814-1.154 7.662-2.795 11.325-5.281 2.218-1.514 10.132-7.225 16.79-19.803 1.484-2.822 2.569-5.858 1.649-8.937z"/></svg>