<svg version="1.1" id="Capa_1" xmlns="http://www.w3.org/2000/svg" x="0" y="0" viewBox="0 0 491.744 491.744" xml:space="preserve"><path d="M487.314 118.834a10.307 10.307 0 00-6.157-6.905l-26.212-10.358a13.21 13.21 0 01-6.175-19.558 11.446 11.446 0 001.362-9.766 11.479 11.479 0 00-6.721-7.214l-46.624-18.428c-5.125-20.123-18.957-36.743-27.238-45.213a4.637 4.637 0 00-4.699-1.18 4.629 4.629 0 00-3.189 3.652l-8.473 49.886h.426a42.093 42.093 0 00-9.682 11.716c-.614.772-1.246 1.542-1.632 2.511l-46.024 96.7L98.21 195.948c-10.02 1.58-19.436 5.228-27.824 10.538a31.261 31.261 0 01-32.804.381l-21.27-12.771c-3.415-2.053-7.927-1.305-10.477 1.904a8.074 8.074 0 001.298 11.353l31.624 25.148a7.113 7.113 0 012.127 8.333l-.001.003c-3.426 6.384-5.242 13.604-5.22 21.184-1.687 15.49-.319 17.688 8.242 62.901.104.736 13.339 44.392-9.838 59.59-5.513 5.168-12.578 11.959-15.477 19.035-6.359 13.861-5.153 10.603-7.731 76.56-.181 4.859 2.833 9.475 7.675 11.069 5.873 1.938 12.204-1.253 14.147-7.114l17.329-52.49c3.568-11.305 30.782-12.656 46.368-30.686l3.323-3.912c5.813-6.806 11.4-24.678 14.368-54.169.825-8.197 8.109-14.191 16.348-14.191h106.92c5.827 7.384 12.682 13.469 20.233 18.044l18.091 135.434c.542 4.054 3.738 7.416 7.99 7.981 5.086.686 9.76-2.895 10.448-7.981l17.428-130.503c29.572-11.708 51.001-46.231 51.001-87.001 0-6.519-.568-12.872-1.614-19.007l21.295-71.334a20.55 20.55 0 0127.243-13.233l8.492 3.356c17.484 6.912 37.435 1.542 49.092-13.201l18.414-23.279a10.314 10.314 0 001.864-9.056z"/></svg>