<svg version="1.1" id="Capa_1" xmlns="http://www.w3.org/2000/svg" x="0" y="0" viewBox="0 0 494.091 494.091" xml:space="preserve"><path d="M432.05 256.783c0-27.414-28.188-50.23-65.576-55.36l.868-192.044a9.337 9.337 0 00-6.28-8.867C357.29-.794 353.08.45 350.64 3.605c-20.269 26.098-34.982 93.295-35.253 149.042-.018 2.247.066 4.439.08 6.674l-49.66-143.484c-1.315-3.777-4.883-6.305-8.865-6.28a9.336 9.336 0 00-8.817 6.367c-10.473 31.357-2.104 99.632 16.124 152.333 6.49 18.743 13.83 36.216 21.586 52.076-14.485 13.87-26.291 35.945-33.711 62.982-9.974-2.239-20.316-3.549-30.997-3.549-71.132 0-129.304 52.636-134.458 119.37-3.082-.619-6.007-1.125-8.527-1.454-2.857-.362-5.832.409-8.301 2.135-2.508 1.71-4.274 4.265-4.917 7.05-3.149 13.83-6.408 39.045 5.975 56.814 13.813 19.836 33.374 31.184 49.015 30.204.066.065.114.145.178.206h202.104v-.007h80.865c7.63 0 13.829-6.19 13.829-13.834 0-21.46-13.699-39.558-32.777-46.471 9.198-23.818 14.677-52.969 14.677-84.576 0-15.78-1.397-30.93-3.887-45.143 22.323-10.08 37.147-27.459 37.147-47.277z"/></svg>