<svg width="25" height="23" fill="none" xmlns="http://www.w3.org/2000/svg"><path fill-rule="evenodd" clip-rule="evenodd" d="M7.31.688A.922.922 0 006.42 0H.922L.814.006A.926.926 0 000 .93l.006.108c.053.462.443.82.915.82h4.706l1.725 11.59.021.103a.922.922 0 00.89.688h14.895l.103-.006a.925.925 0 00.807-.779l.92-5.929L25 7.42a.925.925 0 00-.92-.968h-9.782l-.107.006a.926.926 0 00-.814.923l.007.108c.053.462.442.82.914.82h8.705l-.633 4.072H9.055L7.332.79 7.31.688zM6.528 20.19c0-1.55 1.249-2.81 2.787-2.81 1.538 0 2.786 1.26 2.786 2.81 0 1.551-1.248 2.81-2.786 2.81s-2.787-1.259-2.787-2.81zm3.731 0a.95.95 0 00-.944-.952.95.95 0 00-.945.952.95.95 0 00.945.953.95.95 0 00.944-.953zm7.327 0c0-1.55 1.248-2.81 2.786-2.81 1.539 0 2.787 1.26 2.787 2.81 0 1.551-1.248 2.81-2.787 2.81-1.538 0-2.786-1.259-2.786-2.81zm3.73 0a.95.95 0 00-.944-.952.95.95 0 00-.944.952.95.95 0 00.944.953.95.95 0 00.945-.953z" fill="#fff"/></svg>