<svg width="22" height="22" viewBox="0 0 22 22" fill="none" xmlns="http://www.w3.org/2000/svg">
<path fill-rule="evenodd" clip-rule="evenodd" d="M2.52042 2.52034C-0.84014 5.8809 -0.84014 11.3365 2.52042 14.697C5.64518 17.8218 10.5816 18.041 13.9605 15.3545L20.3172 21.7113L20.4101 21.7933C20.7968 22.094 21.3559 22.0666 21.7113 21.7113C22.0962 21.3263 22.0962 20.7022 21.7113 20.3172L15.3545 13.9605C18.041 10.5815 17.8218 5.6452 14.697 2.52034C11.3366 -0.840114 5.88088 -0.840114 2.52042 2.52034ZM13.3363 3.88104C15.9453 6.49009 15.9453 10.7273 13.3363 13.3364C10.7274 15.9453 6.49009 15.9453 3.88112 13.3364C1.27205 10.7273 1.27205 6.4901 3.88112 3.88104C6.49009 1.27208 10.7274 1.27208 13.3363 3.88104Z" fill="black"/>
</svg>
