<svg version="1.1" id="Capa_1" xmlns="http://www.w3.org/2000/svg" x="0" y="0" viewBox="0 0 493.786 493.786" xml:space="preserve"><path d="M485.83 309.152c-29.119-13.398-66.946-39.251-98.545-88.874l-.018.015v-.015c0-80.66-60.461-148.5-140.581-157.755L69.509 42.052a13.702 13.702 0 00-13.905 7.652c-2.527 5.256-1.465 11.538 2.671 15.652 26.013 25.894 45.076 65.264 52.623 111.179-25.926-34.006-74.736-63.061-108.694-62.981a2.177 2.177 0 00-2.081 1.45 2.158 2.158 0 00.707 2.421c13.71 10.741 22.587 27.358 22.62 46.131.04 16.189-6.503 30.795-17.099 41.409a21.628 21.628 0 00-6.318 15.312 21.638 21.638 0 006.379 15.287c10.625 10.559 17.211 25.139 17.255 41.329.029 18.767-8.758 35.413-22.403 46.218a2.173 2.173 0 00-.71 2.426 2.182 2.182 0 002.077 1.471c33.894-.08 82.479-29.235 108.307-63.263-7.522 46.026-26.6 85.51-52.664 111.447A13.69 13.69 0 0069.507 398.5l123.29-14.25c2.955 21.373-2.414 43.54-6.815 56.778a8.22 8.22 0 001.631 7.997 8.244 8.244 0 007.71 2.657c32.766-6.268 63.535-48.875 81.221-78.212 39.527-6.286 126.468-20.746 206.519-38.512a13.694 13.694 0 0010.643-11.908 13.684 13.684 0 00-7.876-13.898z"/></svg>