<svg width="20" height="37" viewBox="0 0 20 37" fill="none" xmlns="http://www.w3.org/2000/svg">
<path id="Combined Shape Copy 4" fill-rule="evenodd" clip-rule="evenodd" d="M1.95739 0.366139C1.48606 -0.0182818 0.790807 0.00917935 0.351469 0.448521C-0.117159 0.917152 -0.117156 1.67695 0.351475 2.14558L16.628 18.422L0.351472 34.6986L0.269096 34.7897C-0.115327 35.261 -0.0878679 35.9563 0.351472 36.3956C0.820101 36.8642 1.5799 36.8642 2.04853 36.3956L19.1736 19.2705C19.1736 19.2705 19.1736 19.2705 19.1736 19.2705C19.2029 19.2412 19.2304 19.2108 19.256 19.1794L19.256 19.1794C19.2816 19.148 19.3054 19.1156 19.3274 19.0823C19.6349 18.6165 19.5837 17.9835 19.1736 17.5735C19.1732 17.573 19.1728 17.5726 19.1723 17.5722L2.04853 0.448515L1.95739 0.366139Z" fill="white"/>
</svg>
